<?xml version="1.0" encoding="UTF-8" standalone="no"?>
<svg
   xmlns:dc="http://purl.org/dc/elements/1.1/"
   xmlns:cc="http://creativecommons.org/ns#"
   xmlns:rdf="http://www.w3.org/1999/02/22-rdf-syntax-ns#"
   xmlns:svg="http://www.w3.org/2000/svg"
   xmlns="http://www.w3.org/2000/svg"
   xmlns:sodipodi="http://sodipodi.sourceforge.net/DTD/sodipodi-0.dtd"
   xmlns:inkscape="http://www.inkscape.org/namespaces/inkscape"
   width="3240"
   height="5653.9092"
   id="svg2"
   version="1.1"
   inkscape:version="0.48.4 r9939"
   sodipodi:docname="susan_loose_fit_tshirt.svg">
  <metadata
     id="metadata">
    <rdf:RDF>
      <cc:Work
         rdf:about="">
        <dc:format>image/svg+xml</dc:format>
        <dc:type
           rdf:resource="http://purl.org/dc/dcmitype/StillImage" />
      </cc:Work>
    </rdf:RDF>
  </metadata>
  <defs
     id="defs" />
  <sodipodi:namedview
     pagecolor="#ffffff"
     bordercolor="#666666"
     borderopacity="1"
     objecttolerance="10"
     gridtolerance="10"
     guidetolerance="10"
     inkscape:pageopacity="0"
     inkscape:pageshadow="2"
     inkscape:window-width="1855"
     inkscape:window-height="1056"
     id="TShirt Pattern"
     showgrid="false"
     inkscape:zoom="0.66958132"
     inkscape:cx="2038.7387"
     inkscape:cy="2264.5563"
     inkscape:window-x="65"
     inkscape:window-y="24"
     inkscape:window-maximized="1"
     inkscape:current-layer="svg2"
     units="in"
     fit-margin-left="1"
     fit-margin-top="1"
     fit-margin-right="1"
     fit-margin-bottom="1" />
  <g
     id="TShirt"
     transform="translate(-77.25,27.1875)">
    <g
       id="Back">
      <path
         style="fill:none;stroke:#555555;stroke-width:3;stroke-miterlimit:4;stroke-dasharray:9, 9;stroke-dashoffset:0"
         d="m 215.29245,3043.7008 985.88865,0 0,-1712.126 c -194.3306,0 -169.7986,-363.38597 -169.7986,-557.71653 l 0,-454.57098 -461.82615,-196.57744 c -56.70351,10.5155 -181.25298,31.81259 -354.26391,31.81259"
         id="Back-A-seamline"
         inkscape:connector-curvature="0"
         sodipodi:nodetypes="cccsccc" />
      <path
         style="fill:none;stroke:#555555;stroke-width:3"
         d="M 559.3125,67.40625 C 446.23601,89.434217 330.95011,98.845389 215.78132,98.316386 l -2.31513,3003.370814 1043.97131,-1.7497 0,-1824.625 c -22.5302,-0.452 -45.1477,0.9121 -67.625,-0.6875 -22.9555,-2.272 -41.3683,-18.7699 -52.8125,-37.8438 -23.4106,-38.7866 -32.4616,-84.2908 -39.3157,-128.5222 -16.9191,-121.73604 -9.1418,-244.87902 -10.0593,-367.41525 0,-152.91667 0,-305.83333 0,-458.75 C 917.08407,209.49827 746.52824,136.93776 576,64.3125 c -5.5625,1.03125 -11.125,2.0625 -16.6875,3.09375 z"
         id="Back-A-cuttingline"
         inkscape:connector-curvature="0"
         sodipodi:nodetypes="cccccccccccc" />
    </g>
    <g
       id="Front">
      <path
         id="Front-B-seamline"
         d="m 2565.1772,3043.7008 -1078.937,0 0,-1712.126 c 152.0097,0 256.5689,-224.9982 256.5689,-377.00787 l 0,-412.22059 475.6434,-160.27903 c 0,90.83429 52.0087,420.49175 346.7247,420.49175"
         style="fill:none;stroke:#555555;stroke-width:3;stroke-miterlimit:4;stroke-dasharray:9, 9;stroke-dashoffset:0"
         inkscape:connector-curvature="0"
         sodipodi:nodetypes="cccsccc" />
      <path
         style="fill:none;stroke:#555555;stroke-width:3"
         d="m 2200.4688,328.75 c -171.3016,57.73066 -342.6076,115.44822 -513.9063,173.1875 -0.1041,153.97828 0.2083,308.04671 -0.1563,461.96875 -2.8011,64.84895 -21.7604,128.46565 -51.2761,186.07355 -22.3621,42.1725 -51.245,83.0124 -92.4113,108.5514 -19.7929,12.2798 -43.1888,18.3392 -66.4688,16.7813 -15.4167,0 -30.8333,0 -46.25,0 0,608.2083 0,1216.4167 0,1824.625 l 1136.1791,1.4935 c 0,-784.375 0,-1567.2566 0,-2351.63156 -43.2208,-0.98386 -32.0091,-0.6598 -74.1143,-12.52303 -52.8506,-13.36563 -99.2605,-47.21801 -131.5758,-90.76036 -44.0152,-58.84262 -67.9334,-130.34886 -79.9871,-202.09781 -5.2567,-30.10874 -6.2867,-60.63205 -6.2114,-91.16542 -0.2323,-16.37594 -0.4645,-32.75188 -0.6967,-49.12782 -24.375,8.20833 -48.75,16.41667 -73.125,24.625 z"
         id="Front-B-cuttingline"
         inkscape:connector-curvature="0"
         sodipodi:nodetypes="cccccccccccccccc" />
    </g>
    <g
       id="Sleeve">
      <path
         inkscape:connector-curvature="0"
         style="fill:none;stroke:#555555;stroke-width:3;stroke-miterlimit:4;stroke-dasharray:9, 9;stroke-dashoffset:0"
         d="m 1437.4289,3282.8576 c 538.1918,0 654.6806,169.7986 789.2285,169.7986 l -255.8761,779.5276 -1289.76378,0 -255.8761,-779.5276 c 171.0716,0 328.0012,-169.7986 1012.28748,-169.7986 z"
         id="Sleeve-C-seamline" />
      <path
         inkscape:connector-curvature="0"
         id="Sleeve-C-cuttingline"
         d="m 2226.6599,3396.407 c -35.8812,-0.6639 -68.9721,-16.6602 -101.4926,-30.179 -65.7664,-29.4108 -132.2089,-57.5739 -201.4762,-77.9148 -166.5213,-49.7082 -341.4851,-63.0988 -514.5311,-61.5933 -229.4095,1.7329 -460.73468,21.7174 -681.75918,85.7942 -69.0052,19.428 -136.2608,44.7007 -204.5913,66.0707 -36.1733,11.1601 -73.6223,19.4771 -111.6809,17.8222 -21.2188,-1e-4 -42.4375,0 -63.6563,0 97.5887,297.3454 195.226,594.6748 292.7813,892.0312 457.09378,0 914.18748,0 1371.28128,0 97.5553,-297.3564 195.1926,-594.6858 292.7812,-892.0312 -25.8854,-1e-4 -51.7708,0 -77.6562,0 z"
         style="fill:none;stroke:#555555;stroke-width:3" />
    </g>
    <g
       id="BackNeckBand">
      <path
         id="BackNeckBand-D-seamline"
         d="m 913.50508,4508.7114 0,553.6623 99.21252,0 0,-553.6623 z"
         style="fill:none;stroke:#555555;stroke-width:3;stroke-miterlimit:4;stroke-dasharray:9, 9;stroke-dashoffset:0"
         inkscape:connector-curvature="0" />
      <path
         style="fill:none;stroke:#555555;stroke-width:3"
         d="m 857.248,4508.7216 c 0,203.3021 0,406.6042 0,609.9063 70.5729,-1e-4 141.1458,0 211.7187,0 0,-222.0521 0,-444.1042 0,-666.1563 -70.5729,0 -141.1458,0 -211.7187,0 0,18.75 0,37.5 0,56.25 z"
         id="BackNeckBand-D-cuttingline"
         inkscape:connector-curvature="0" />
    </g>
    <g
       id="FrontNeckBand">
      <path
         id="FrontNeckBand-E-seamline"
         d="m 1305.2176,4508.7114 0,970.2494 99.2126,0 0,-970.2494 z"
         style="fill:none;stroke:#555555;stroke-width:3;stroke-miterlimit:4;stroke-dasharray:9, 9;stroke-dashoffset:0"
         inkscape:connector-curvature="0" />
      <path
         style="fill:none;stroke:#555555;stroke-width:3"
         d="m 1248.9667,4508.7216 c 0,342.1667 0,684.3333 0,1026.5 70.5729,0 141.1458,0 211.7187,0 0,-360.9167 10e-5,-721.8333 0,-1082.75 -70.5729,0 -141.1458,0 -211.7187,0 0,18.75 0,37.5 0,56.25 z"
         id="FrontNeckBand-E-cuttingline"
         inkscape:connector-curvature="0" />
    </g>
    <g
       id="ShoulderStayStrip">
      <path
         style="fill:none;stroke:#555555;stroke-width:3"
         inkscape:connector-curvature="0"
         id="ShoulderStayStrip-F-cuttingline"
         d="m 1696.9302,4508.7114 0,501.9223 49.6063,0 0,-501.9223 z" />
    </g>
  </g>
</svg>
